<svg xmlns="http://www.w3.org/2000/svg" version="1.1" xmlns:xlink="http://www.w3.org/1999/xlink" xmlns:svgjs="http://svgjs.dev/svgjs" width="1500" height="693" viewBox="0 0 1500 693"><g transform="matrix(1,0,0,1,-0.9090909090909918,-1.670239761979417)"><svg viewBox="0 0 396 183" data-background-color="#f7f7f7" preserveAspectRatio="xMidYMid meet" height="693" width="1500" xmlns="http://www.w3.org/2000/svg" xmlns:xlink="http://www.w3.org/1999/xlink"><g id="tight-bounds" transform="matrix(1,0,0,1,0.2400000000000091,0.44105898476512095)"><svg viewBox="0 0 395.52 182.11788203046976" height="182.11788203046976" width="395.52"><g><svg viewBox="0 0 395.52 182.11788203046976" height="182.11788203046976" width="395.52"><g transform="matrix(1,0,0,1,0,134.24208542030027)"><svg viewBox="0 0 395.52 47.87579661016949" height="47.87579661016949" width="395.52"><g id="textblocktransform"><svg viewBox="0 0 395.52 47.87579661016949" height="47.87579661016949" width="395.52" id="textblock"><g><svg viewBox="0 0 395.52 47.87579661016949" height="47.87579661016949" width="395.52"><g transform="matrix(1,0,0,1,0,0)"><svg width="395.52" viewBox="3.75 -33.5 353.97 42.85" height="47.87579661016949" data-palette-color="#000000"><path d="M13.6 0.65L13.6 0.65 13.6 0.65Q16.9 0.65 19.45-0.7 22-2.05 23.43-4.78 24.85-7.5 24.85-11.6L24.85-11.6Q24.85-15.85 23.28-18.53 21.7-21.2 19.03-22.48 16.35-23.75 13.05-23.75L13.05-23.75Q10.65-23.75 8.78-23.13 6.9-22.5 5.55-21.75L5.55-21.75Q4.45-21.1 4.1-20.5 3.75-19.9 3.75-18.9L3.75-18.9 3.75-2.4 7.75-2.4 7.75-19Q8.75-19.55 10-20 11.25-20.45 13.05-20.45L13.05-20.45Q15.1-20.45 16.88-19.6 18.65-18.75 19.73-16.82 20.8-14.9 20.8-11.6L20.8-11.6Q20.8-6.9 18.68-4.78 16.55-2.65 13.05-2.65L13.05-2.65Q10.9-2.65 9.38-3.38 7.85-4.1 6.85-5.05L6.85-5.05 6.85-1.35Q7.7-0.6 9.58 0.03 11.45 0.65 13.6 0.65ZM7.75 9L7.75-3.75 3.75-3.85 3.75 7.5Q3.75 8.45 4.3 8.9 4.85 9.35 5.9 9.35L5.9 9.35Q6.5 9.35 7 9.22 7.5 9.1 7.75 9L7.75 9ZM49.3-11.35L32.5-9 32.3-12.15 47.4-14.2Q47.2-16.95 45.5-18.73 43.8-20.5 40.8-20.5L40.8-20.5Q37.7-20.5 35.67-18.28 33.65-16.05 33.65-11.9L33.65-11.9 33.65-10.8Q34-6.8 36.27-4.73 38.55-2.65 42.5-2.65L42.5-2.65Q44.6-2.65 46.3-3.35 48-4.05 49-4.85L49-4.85Q49.55-4.5 49.87-4.03 50.2-3.55 50.2-2.95L50.2-2.95Q50.2-2 49.12-1.18 48.05-0.35 46.27 0.15 44.5 0.65 42.3 0.65L42.3 0.65Q38.45 0.65 35.62-0.75 32.8-2.15 31.27-4.93 29.75-7.7 29.75-11.7L29.75-11.7Q29.75-14.55 30.57-16.78 31.4-19 32.87-20.55 34.35-22.1 36.4-22.93 38.45-23.75 40.85-23.75L40.85-23.75Q43.9-23.75 46.22-22.45 48.55-21.15 49.87-18.82 51.2-16.5 51.2-13.5L51.2-13.5Q51.2-12.4 50.7-11.93 50.2-11.45 49.3-11.35L49.3-11.35ZM61-18.8L61-18.8 61-10.9 57-10.9 57-18.5Q57-19.65 57.42-20.33 57.85-21 58.85-21.65L58.85-21.65Q60.15-22.5 62.4-23.13 64.65-23.75 67.4-23.75L67.4-23.75Q71.4-23.75 71.4-21.75L71.4-21.75Q71.4-21.25 71.25-20.83 71.09-20.4 70.84-20.1L70.84-20.1Q70.34-20.2 69.55-20.3 68.75-20.4 67.95-20.4L67.95-20.4Q65.65-20.4 63.9-19.93 62.15-19.45 61-18.8ZM57-1.55L57-13.2 61-12.6 61-0.1Q60.75 0 60.25 0.13 59.75 0.25 59.15 0.25L59.15 0.25Q58.1 0.25 57.55-0.18 57-0.6 57-1.55L57-1.55ZM88.94-18.55L79.44-18.55 79.44-21.8 90.04-21.8Q90.19-21.6 90.34-21.18 90.49-20.75 90.49-20.2L90.49-20.2Q90.49-19.4 90.09-18.98 89.69-18.55 88.94-18.55L88.94-18.55ZM80.14-24.95L80.14-24.95 80.14-19.1 76.19-19.1 76.19-25.15Q76.19-28.1 77.27-29.93 78.34-31.75 80.37-32.63 82.39-33.5 85.19-33.5L85.19-33.5Q88.04-33.5 89.67-32.75 91.29-32 91.29-30.9L91.29-30.9Q91.29-30.35 91.07-29.9 90.84-29.45 90.44-29.05L90.44-29.05Q89.54-29.55 88.19-29.88 86.84-30.2 85.59-30.2L85.59-30.2Q82.54-30.2 81.34-28.95 80.14-27.7 80.14-24.95ZM76.19-1.55L76.19-21.3 80.19-21.3 80.19-0.1Q79.94 0 79.44 0.13 78.94 0.25 78.34 0.25L78.34 0.25Q77.29 0.25 76.74-0.18 76.19-0.6 76.19-1.55L76.19-1.55ZM96.04-8.45L96.04-8.45 96.04-13 100.04-13 100.04-8.65Q100.04-5.45 101.74-4.05 103.44-2.65 106.44-2.65L106.44-2.65Q108.44-2.65 109.84-3.08 111.24-3.5 112.04-3.95L112.04-3.95 112.04-13 116.04-13 116.04-4.1Q116.04-3.05 115.77-2.43 115.49-1.8 114.44-1.2L114.44-1.2Q113.34-0.55 111.29 0.05 109.24 0.65 106.39 0.65L106.39 0.65Q103.09 0.65 100.77-0.33 98.44-1.3 97.24-3.33 96.04-5.35 96.04-8.45ZM116.04-21.5L116.04-10.4 112.04-10.4 112.04-23Q112.29-23.1 112.82-23.23 113.34-23.35 113.89-23.35L113.89-23.35Q114.99-23.35 115.52-22.93 116.04-22.5 116.04-21.5L116.04-21.5ZM100.04-21.5L100.04-10.4 96.04-10.4 96.04-23Q96.29-23.1 96.82-23.23 97.34-23.35 97.94-23.35L97.94-23.35Q98.99-23.35 99.52-22.93 100.04-22.5 100.04-21.5L100.04-21.5ZM142.19-16L142.19-16 142.19-10.25 138.19-10.25 138.19-15.7Q138.19-18.15 136.76-19.3 135.34-20.45 132.99-20.45L132.99-20.45Q131.44-20.45 129.99-19.95 128.54-19.45 127.54-18.8L127.54-18.8 127.54-10.25 123.54-10.25 123.54-18.6Q123.54-19.6 123.96-20.3 124.39-21 125.44-21.65L125.44-21.65Q126.79-22.5 128.86-23.13 130.94-23.75 133.04-23.75L133.04-23.75Q135.59-23.75 137.54-22.98 139.49-22.2 140.44-20.85L140.44-20.85Q140.74-20.55 140.94-20.3 141.14-20.05 141.34-19.65L141.34-19.65Q141.69-19.05 141.94-18.1 142.19-17.15 142.19-16ZM156.84-15.9L156.84-15.9 156.84-10.25 152.84-10.25 152.84-15.7Q152.84-18.15 151.44-19.3 150.04-20.45 147.69-20.45L147.69-20.45Q145.94-20.45 144.31-19.73 142.69-19 141.39-17.65L141.39-17.65 139.79-20.55Q141.09-21.85 143.19-22.8 145.29-23.75 147.99-23.75L147.99-23.75Q150.69-23.75 152.66-22.9 154.64-22.05 155.74-20.3 156.84-18.55 156.84-15.9ZM123.54-1.55L123.54-12.9 127.54-12.9 127.54-0.1Q127.29 0 126.79 0.13 126.29 0.25 125.69 0.25L125.69 0.25Q124.64 0.25 124.09-0.18 123.54-0.6 123.54-1.55L123.54-1.55ZM138.19-1.55L138.19-12.9 142.19-12.9 142.19-0.1Q141.94 0 141.41 0.13 140.89 0.25 140.34 0.25L140.34 0.25Q139.24 0.25 138.71-0.18 138.19-0.6 138.19-1.55L138.19-1.55ZM152.84-1.55L152.84-12.9 156.84-12.9 156.84-0.1Q156.59 0 156.06 0.13 155.54 0.25 154.99 0.25L154.99 0.25Q153.89 0.25 153.36-0.18 152.84-0.6 152.84-1.55L152.84-1.55ZM182.59-11.35L165.78-9 165.59-12.15 180.69-14.2Q180.49-16.95 178.78-18.73 177.09-20.5 174.09-20.5L174.09-20.5Q170.99-20.5 168.96-18.28 166.94-16.05 166.94-11.9L166.94-11.9 166.94-10.8Q167.28-6.8 169.56-4.73 171.84-2.65 175.78-2.65L175.78-2.65Q177.89-2.65 179.59-3.35 181.29-4.05 182.29-4.85L182.29-4.85Q182.84-4.5 183.16-4.03 183.49-3.55 183.49-2.95L183.49-2.95Q183.49-2 182.41-1.18 181.34-0.35 179.56 0.15 177.78 0.65 175.59 0.65L175.59 0.65Q171.74 0.65 168.91-0.75 166.09-2.15 164.56-4.93 163.03-7.7 163.03-11.7L163.03-11.7Q163.03-14.55 163.86-16.78 164.69-19 166.16-20.55 167.64-22.1 169.69-22.93 171.74-23.75 174.14-23.75L174.14-23.75Q177.19-23.75 179.51-22.45 181.84-21.15 183.16-18.82 184.49-16.5 184.49-13.5L184.49-13.5Q184.49-12.4 183.99-11.93 183.49-11.45 182.59-11.35L182.59-11.35ZM220.33-14.65L220.33-9.95 216.33-9.95 216.33-14.55Q216.33-17.55 214.66-19 212.98-20.45 210.33-20.45L210.33-20.45Q208.38-20.45 206.71-19.7 205.03-18.95 203.88-17.9L203.88-17.9 203.13-21.15Q204.33-22 206.31-22.88 208.28-23.75 210.88-23.75L210.88-23.75Q215.03-23.75 217.68-21.5 220.33-19.25 220.33-14.65L220.33-14.65ZM200.38-1.55L200.38-13.2 204.38-13.2 204.38-0.1Q204.13 0 203.63 0.13 203.13 0.25 202.53 0.25L202.53 0.25Q201.48 0.25 200.93-0.18 200.38-0.6 200.38-1.55L200.38-1.55ZM216.33-1.55L216.33-13.15 220.33-13.1 220.33-0.1Q220.08 0 219.56 0.13 219.03 0.25 218.48 0.25L218.48 0.25Q217.38 0.25 216.86-0.18 216.33-0.6 216.33-1.55L216.33-1.55ZM204.38-30.95L204.38-11.25 200.38-11.25 200.38-32.4Q200.63-32.5 201.16-32.63 201.68-32.75 202.28-32.75L202.28-32.75Q203.33-32.75 203.86-32.33 204.38-31.9 204.38-30.95L204.38-30.95ZM249.28-11.55L249.28-11.55 249.28-11.55Q249.28-7.85 247.88-5.1 246.48-2.35 243.93-0.85 241.38 0.65 237.93 0.65L237.93 0.65Q234.48 0.65 231.9-0.85 229.33-2.35 227.93-5.1 226.53-7.85 226.53-11.55L226.53-11.55Q226.53-15.3 227.95-18.03 229.38-20.75 231.95-22.25 234.53-23.75 237.93-23.75L237.93-23.75Q241.33-23.75 243.88-22.25 246.43-20.75 247.85-18.03 249.28-15.3 249.28-11.55ZM237.93-20.45L237.93-20.45 237.93-20.45Q234.58-20.45 232.6-18.07 230.63-15.7 230.63-11.55L230.63-11.55Q230.63-7.35 232.55-5 234.48-2.65 237.93-2.65L237.93-2.65Q241.33-2.65 243.25-5.03 245.18-7.4 245.18-11.55L245.18-11.55Q245.18-15.7 243.25-18.07 241.33-20.45 237.93-20.45ZM259.48-18.8L259.48-18.8 259.48-10.9 255.48-10.9 255.48-18.5Q255.48-19.65 255.9-20.33 256.33-21 257.33-21.65L257.33-21.65Q258.63-22.5 260.88-23.13 263.13-23.75 265.88-23.75L265.88-23.75Q269.88-23.75 269.88-21.75L269.88-21.75Q269.88-21.25 269.73-20.83 269.58-20.4 269.33-20.1L269.33-20.1Q268.83-20.2 268.03-20.3 267.23-20.4 266.43-20.4L266.43-20.4Q264.13-20.4 262.38-19.93 260.63-19.45 259.48-18.8ZM255.48-1.55L255.48-13.2 259.48-12.6 259.48-0.1Q259.23 0 258.73 0.13 258.23 0.25 257.63 0.25L257.63 0.25Q256.58 0.25 256.03-0.18 255.48-0.6 255.48-1.55L255.48-1.55ZM274.22-30.4L274.22-30.4 274.22-30.4Q274.22-31.45 274.97-32.18 275.72-32.9 276.82-32.9L276.82-32.9Q277.97-32.9 278.67-32.18 279.37-31.45 279.37-30.4L279.37-30.4Q279.37-29.35 278.67-28.63 277.97-27.9 276.82-27.9L276.82-27.9Q275.72-27.9 274.97-28.63 274.22-29.35 274.22-30.4ZM274.82-1.55L274.82-13.2 278.82-13.2 278.82-0.1Q278.57 0 278.07 0.13 277.57 0.25 276.97 0.25L276.97 0.25Q275.92 0.25 275.37-0.18 274.82-0.6 274.82-1.55L274.82-1.55ZM278.82-21.5L278.82-11.25 274.82-11.25 274.82-23Q275.07-23.1 275.6-23.23 276.12-23.35 276.72-23.35L276.72-23.35Q277.77-23.35 278.3-22.93 278.82-22.5 278.82-21.5L278.82-21.5ZM302.82-19.2L287.52 0 285.92 0Q285.57-0.3 285.35-0.78 285.12-1.25 285.12-1.75L285.12-1.75Q285.12-2.35 285.4-2.88 285.67-3.4 286.02-3.9L286.02-3.9 301.37-23.1 302.92-23.1Q303.32-22.75 303.55-22.3 303.77-21.85 303.77-21.3L303.77-21.3Q303.77-20.75 303.5-20.25 303.22-19.75 302.82-19.2L302.82-19.2ZM286.92-23.1L302.37-23.1 302.37-19.8 285.87-19.8Q285.72-20.05 285.57-20.5 285.42-20.95 285.42-21.45L285.42-21.45Q285.42-22.3 285.82-22.7 286.22-23.1 286.92-23.1L286.92-23.1ZM302.57 0L286.22 0 286.22-3.25 303.67-3.25Q303.82-3.05 303.97-2.63 304.12-2.2 304.12-1.65L304.12-1.65Q304.12-0.85 303.72-0.43 303.32 0 302.57 0L302.57 0ZM331.52-11.55L331.52-11.55 331.52-11.55Q331.52-7.85 330.12-5.1 328.72-2.35 326.17-0.85 323.62 0.65 320.17 0.65L320.17 0.65Q316.72 0.65 314.14-0.85 311.57-2.35 310.17-5.1 308.77-7.85 308.77-11.55L308.77-11.55Q308.77-15.3 310.19-18.03 311.62-20.75 314.19-22.25 316.77-23.75 320.17-23.75L320.17-23.75Q323.57-23.75 326.12-22.25 328.67-20.75 330.09-18.03 331.52-15.3 331.52-11.55ZM320.17-20.45L320.17-20.45 320.17-20.45Q316.82-20.45 314.84-18.07 312.87-15.7 312.87-11.55L312.87-11.55Q312.87-7.35 314.79-5 316.72-2.65 320.17-2.65L320.17-2.65Q323.57-2.65 325.49-5.03 327.42-7.4 327.42-11.55L327.42-11.55Q327.42-15.7 325.49-18.07 323.57-20.45 320.17-20.45ZM357.72-15.25L357.72-15.25 357.72-10.15 353.72-10.15 353.72-15.05Q353.72-17.85 352.14-19.15 350.57-20.45 347.92-20.45L347.92-20.45Q345.92-20.45 344.37-19.95 342.82-19.45 341.72-18.8L341.72-18.8 341.72-10.15 337.72-10.15 337.72-18.6Q337.72-19.65 338.14-20.33 338.57-21 339.62-21.65L339.62-21.65Q340.92-22.4 343.07-23.08 345.22-23.75 347.92-23.75L347.92-23.75Q352.47-23.75 355.09-21.68 357.72-19.6 357.72-15.25ZM337.72-1.55L337.72-12.9 341.72-12.9 341.72-0.1Q341.47 0 340.97 0.13 340.47 0.25 339.87 0.25L339.87 0.25Q338.82 0.25 338.27-0.18 337.72-0.6 337.72-1.55L337.72-1.55ZM353.72-1.55L353.72-12.9 357.72-12.9 357.72-0.1Q357.47 0 356.94 0.13 356.42 0.25 355.87 0.25L355.87 0.25Q354.77 0.25 354.24-0.18 353.72-0.6 353.72-1.55L353.72-1.55Z" opacity="1" transform="matrix(1,0,0,1,0,0)" fill="#000000" class="wordmark-text-0" data-fill-palette-color="primary" id="text-0"></path></svg></g></svg></g></svg></g></svg></g><g transform="matrix(1,0,0,1,141.94128385039224,0)"><svg viewBox="0 0 111.63743229921552 111.63743229921552" height="111.63743229921552" width="111.63743229921552"><g><svg></svg></g><g id="icon-0"><svg viewBox="0 0 111.63743229921552 111.63743229921552" height="111.63743229921552" width="111.63743229921552"><g><path d="M0 55.819c0-30.828 24.991-55.819 55.819-55.819 30.828 0 55.819 24.991 55.818 55.819 0 30.828-24.991 55.819-55.818 55.818-30.828 0-55.819-24.991-55.819-55.818zM55.819 107.32c28.443 0 51.501-23.058 51.501-51.501 0-28.443-23.058-51.501-51.501-51.502-28.443 0-51.501 23.058-51.502 51.502 0 28.443 23.058 51.501 51.502 51.501z" data-fill-palette-color="accent" fill="#23222d" stroke="transparent"></path></g><g transform="matrix(1,0,0,1,36.14481906805427,28.04380262270871)"><svg viewBox="0 0 39.34779416310698 55.5498270537981" height="55.5498270537981" width="39.34779416310698"><g><svg xmlns="http://www.w3.org/2000/svg" xmlns:xlink="http://www.w3.org/1999/xlink" version="1.1" x="0" y="0" viewBox="9 2 34 48" style="enable-background:new 0 0 52 52;" xml:space="preserve" height="55.5498270537981" width="39.34779416310698" class="icon-dxe-0" data-fill-palette-color="accent" id="dxe-0"><g fill="#23222d" data-fill-palette-color="accent"><path d="M37 2C34.16 2 31.842 3.259 31.19 5H26.004V3H24.004V5H21.004V7H24.004V9H19.004V17.107A17 17 0 0 1 25 16C27.108 16 29.123 16.404 31.004 17.11V9H26.004V7H31.19C31.842 8.741 34.16 10 37 10 40.37 10 43 8.24 43 6S40.37 2 37 2" fill="#23222d" data-fill-palette-color="accent"></path><rect x="14.5041046" y="1.3074176" transform="matrix(0.3713907 -0.9284767 0.9284767 0.3713907 6.0321851 16.9097366)" width="2.0002146" height="5.3851647" fill="#23222d" data-fill-palette-color="accent"></rect><rect x="12.8116293" y="7.9998927" transform="matrix(0.9286113 -0.3710539 0.3710539 0.9286113 -2.2326603 6.3953972)" width="5.3851647" height="2.0002146" fill="#23222d" data-fill-palette-color="accent"></rect><path d="M25 18C16.18 18 9 25.63 9 35 9 41.16 12.16 46.86 17.24 49.86L17.47 50H32.53L32.77 49.86C37.85 46.86 41 41.16 41 35 41 25.63 33.83 18 25 18M25.5 44.5C22.14 44.5 19.5 40.11 19.5 34.5S22.14 24.5 25.5 24.5C28.87 24.5 31.5 28.89 31.5 34.5S28.87 44.5 25.5 44.5" fill="#23222d" data-fill-palette-color="accent"></path></g></svg></g></svg></g></svg></g></svg></g><g></g></svg></g><defs></defs></svg><rect width="395.52" height="182.11788203046976" fill="none" stroke="none" visibility="hidden"></rect></g></svg></g></svg>